<svg width="96" height="96" viewBox="0 0 96 96" fill="none" xmlns="http://www.w3.org/2000/svg">
<rect width="96" height="96" rx="48" fill="#E8F5ED"/>
<path d="M30.5 35.0697C32.7125 34.1447 35.885 33.1472 38.97 32.8372C42.295 32.5022 45.115 32.9947 46.75 34.7172V59.0822C44.4125 57.7572 41.45 57.5747 38.7175 57.8497C35.7675 58.1497 32.7925 59.0022 30.5 59.8772V35.0697ZM49.25 34.7172C50.885 32.9947 53.705 32.5022 57.03 32.8372C60.115 33.1472 63.2875 34.1447 65.5 35.0697V59.8772C63.205 59.0022 60.2325 58.1472 57.2825 57.8522C54.5475 57.5747 51.5875 57.7547 49.25 59.0822V34.7172ZM48 32.4572C45.5375 30.3397 41.9675 30.0247 38.7175 30.3497C34.9325 30.7322 31.1125 32.0297 28.7325 33.1122C28.5141 33.2115 28.3289 33.3716 28.1991 33.5733C28.0692 33.775 28.0001 34.0098 28 34.2497V61.7497C28.0001 61.9588 28.0526 62.1646 28.1528 62.3482C28.253 62.5318 28.3977 62.6873 28.5735 62.8005C28.7494 62.9137 28.9509 62.9809 29.1595 62.9961C29.3681 63.0112 29.5771 62.9738 29.7675 62.8872C31.9725 61.8872 35.525 60.6847 38.9675 60.3372C42.49 59.9822 45.4425 60.5547 47.025 62.5297C47.1421 62.6757 47.2905 62.7935 47.4593 62.8745C47.628 62.9554 47.8128 62.9975 48 62.9975C48.1872 62.9975 48.372 62.9554 48.5407 62.8745C48.7095 62.7935 48.8579 62.6757 48.975 62.5297C50.5575 60.5547 53.51 59.9822 57.03 60.3372C60.475 60.6847 64.03 61.8872 66.2325 62.8872C66.4229 62.9738 66.6319 63.0112 66.8405 62.9961C67.0491 62.9809 67.2506 62.9137 67.4265 62.8005C67.6023 62.6873 67.747 62.5318 67.8472 62.3482C67.9474 62.1646 67.9999 61.9588 68 61.7497V34.2497C67.9999 34.0098 67.9308 33.775 67.8009 33.5733C67.6711 33.3716 67.4859 33.2115 67.2675 33.1122C64.8875 32.0297 61.0675 30.7322 57.2825 30.3497C54.0325 30.0222 50.4625 30.3397 48 32.4572Z" fill="#04AA6D"/>
</svg>
