<svg width="104" height="104" viewBox="0 0 104 104" fill="none" xmlns="http://www.w3.org/2000/svg">
<rect width="104" height="104" rx="52" fill="#E8F5ED"/>
<g clip-path="url(#clip0_335_19371)">
<path d="M52 40.75C52 40.4185 51.8683 40.1005 51.6339 39.8661C51.3995 39.6317 51.0815 39.5 50.75 39.5C50.4185 39.5 50.1005 39.6317 49.8661 39.8661C49.6317 40.1005 49.5 40.4185 49.5 40.75V54.5C49.5001 54.7203 49.5584 54.9367 49.669 55.1273C49.7796 55.3178 49.9387 55.4757 50.13 55.585L58.88 60.585C59.1671 60.7402 59.5036 60.7769 59.8175 60.6873C60.1313 60.5977 60.3977 60.3889 60.5596 60.1055C60.7216 59.8221 60.7662 59.4866 60.6841 59.1707C60.6019 58.8548 60.3995 58.5836 60.12 58.415L52 53.775V40.75Z" fill="#04AA6D"/>
<path d="M52 72C57.3043 72 62.3914 69.8929 66.1421 66.1421C69.8929 62.3914 72 57.3043 72 52C72 46.6957 69.8929 41.6086 66.1421 37.8579C62.3914 34.1071 57.3043 32 52 32C46.6957 32 41.6086 34.1071 37.8579 37.8579C34.1071 41.6086 32 46.6957 32 52C32 57.3043 34.1071 62.3914 37.8579 66.1421C41.6086 69.8929 46.6957 72 52 72ZM69.5 52C69.5 56.6413 67.6563 61.0925 64.3744 64.3744C61.0925 67.6563 56.6413 69.5 52 69.5C47.3587 69.5 42.9075 67.6563 39.6256 64.3744C36.3437 61.0925 34.5 56.6413 34.5 52C34.5 47.3587 36.3437 42.9075 39.6256 39.6256C42.9075 36.3437 47.3587 34.5 52 34.5C56.6413 34.5 61.0925 36.3437 64.3744 39.6256C67.6563 42.9075 69.5 47.3587 69.5 52Z" fill="#04AA6D"/>
</g>
<defs>
<clipPath id="clip0_335_19371">
<rect width="40" height="40" fill="white" transform="translate(32 32)"/>
</clipPath>
</defs>
</svg>
