<svg width="96" height="96" viewBox="0 0 96 96" fill="none" xmlns="http://www.w3.org/2000/svg">
<rect width="96" height="96" rx="48" fill="#E8F5ED"/>
<path d="M48.5569 38.3273L58.7011 41.6921L48.5557 45.4032L37.7759 41.6921L48.5569 38.3273ZM48.57 35.5082C48.5282 35.508 48.4866 35.514 48.446 35.5261L31.005 40.9691C30.8953 41.0032 30.7977 41.0819 30.7276 41.1928C30.6575 41.3038 30.6188 41.4408 30.6176 41.5823C30.6163 41.7238 30.6526 41.8618 30.7207 41.9747C30.7889 42.0876 30.885 42.169 30.994 42.2061L48.4339 48.2072C48.4779 48.2224 48.5233 48.2303 48.5689 48.2305C48.6172 48.2301 48.6653 48.2213 48.7116 48.2044L65.124 42.2034C65.233 42.1661 65.3291 42.0846 65.3971 41.9716C65.4651 41.8586 65.5013 41.7205 65.5 41.579C65.4986 41.4375 65.4597 41.3006 65.3895 41.1897C65.3193 41.0788 65.2217 41.0003 65.112 40.9663L48.7007 35.5206C48.658 35.5069 48.6141 35.5 48.57 35.5V35.5082Z" fill="#04AA6D"/>
<path d="M55.2114 62.9943H40.7793C39.6614 63.0534 38.5666 62.6477 37.7335 61.8657C36.9003 61.0837 36.3966 59.9888 36.332 58.8198V48.8563C36.332 48.557 36.4456 48.27 36.6478 48.0585C36.8501 47.8469 37.1243 47.728 37.4103 47.728C37.6964 47.728 37.9707 47.8469 38.1729 48.0585C38.3752 48.27 38.4887 48.557 38.4887 48.8563V58.8198C38.5564 59.3887 38.8337 59.9075 39.2615 60.2657C39.6893 60.6239 40.2339 60.7933 40.7793 60.7378H55.2114C55.757 60.7939 56.302 60.6248 56.7301 60.2665C57.1582 59.9082 57.4356 59.389 57.503 58.8198V48.8563C57.503 48.557 57.6166 48.27 57.8188 48.0585C58.0211 47.8469 58.2954 47.728 58.5814 47.728C58.8674 47.728 59.1417 47.8469 59.3439 48.0585C59.5461 48.27 59.6598 48.557 59.6598 48.8563V58.8198C59.5952 59.989 59.0912 61.0841 58.2579 61.8661C57.4245 62.6482 56.3294 63.0537 55.2114 62.9943Z" fill="#04AA6D"/>
<path d="M31.5977 53.9718C31.3066 53.9718 31.0274 53.827 30.8215 53.5692C30.6157 53.3114 30.5 52.9618 30.5 52.5973V46.8134C30.5 46.4489 30.6157 46.0993 30.8215 45.8415C31.0274 45.5838 31.3066 45.4389 31.5977 45.4389C31.8889 45.4389 32.1681 45.5838 32.374 45.8415C32.5798 46.0993 32.6955 46.4489 32.6955 46.8134V52.5973C32.6955 52.9618 32.5798 53.3114 32.374 53.5692C32.1681 53.827 31.8889 53.9718 31.5977 53.9718Z" fill="#04AA6D"/>
</svg>
