<svg width="48" height="49" viewBox="0 0 48 49" fill="none" xmlns="http://www.w3.org/2000/svg">
<rect y="0.905762" width="48" height="48" rx="8" fill="white"/>
<rect y="0.905762" width="48" height="48" rx="8" fill="#04AA6D" fill-opacity="0.1"/>
<path d="M25.6875 15.6499C25.9982 15.6499 26.25 15.9017 26.25 16.2124C26.25 16.5231 26.5018 16.7749 26.8125 16.7749C27.1232 16.7749 27.375 17.0267 27.375 17.3374V17.8999C27.375 18.2106 27.1232 18.4624 26.8125 18.4624H21.1875C20.8768 18.4624 20.625 18.2106 20.625 17.8999V17.3374C20.625 17.0267 20.8768 16.7749 21.1875 16.7749C21.4982 16.7749 21.75 16.5231 21.75 16.2124C21.75 15.9017 22.0018 15.6499 22.3125 15.6499H25.6875Z" fill="#04AA6D"/>
<path d="M18.375 18.4624C18.375 18.1517 18.6268 17.8999 18.9375 17.8999H19.5C19.8107 17.8999 20.0625 17.6481 20.0625 17.3374C20.0625 17.0267 19.8107 16.7749 19.5 16.7749H18.9375C18.0055 16.7749 17.25 17.5304 17.25 18.4624V31.9624C17.25 32.8944 18.0055 33.6499 18.9375 33.6499H29.0625C29.9945 33.6499 30.75 32.8944 30.75 31.9624V18.4624C30.75 17.5304 29.9945 16.7749 29.0625 16.7749H28.5C28.1893 16.7749 27.9375 17.0267 27.9375 17.3374C27.9375 17.6481 28.1893 17.8999 28.5 17.8999H29.0625C29.3732 17.8999 29.625 18.1517 29.625 18.4624V31.9624C29.625 32.2731 29.3732 32.5249 29.0625 32.5249H18.9375C18.6268 32.5249 18.375 32.2731 18.375 31.9624V18.4624Z" fill="#04AA6D"/>
<path d="M26.25 23.5249C26.25 22.9036 26.7537 22.3999 27.375 22.3999C27.9963 22.3999 28.5 22.9036 28.5 23.5249V29.1499C28.5 29.7712 27.9963 30.2749 27.375 30.2749C26.7537 30.2749 26.25 29.7712 26.25 29.1499V23.5249Z" fill="#04AA6D"/>
<path d="M19.5 28.0249C19.5 27.4036 20.0037 26.8999 20.625 26.8999C21.2463 26.8999 21.75 27.4036 21.75 28.0249V29.1499C21.75 29.7712 21.2463 30.2749 20.625 30.2749C20.0037 30.2749 19.5 29.7712 19.5 29.1499V28.0249Z" fill="#04AA6D"/>
<path d="M24 24.6499C23.3787 24.6499 22.875 25.1536 22.875 25.7749V29.1499C22.875 29.7712 23.3787 30.2749 24 30.2749C24.6213 30.2749 25.125 29.7712 25.125 29.1499V25.7749C25.125 25.1536 24.6213 24.6499 24 24.6499Z" fill="#04AA6D"/>
</svg>
