<svg width="72" height="72" viewBox="0 0 72 72" fill="none" xmlns="http://www.w3.org/2000/svg">
<rect width="72" height="72" rx="36" fill="#E8F5ED"/>
<g clip-path="url(#clip0_335_19378)">
<path d="M30.2851 23.0371H26.4755C25.4652 23.0371 24.4962 23.4273 23.7818 24.1219C23.0674 24.8164 22.666 25.7585 22.666 26.7408V48.963C22.666 49.9453 23.0674 50.8873 23.7818 51.5819C24.4962 52.2765 25.4652 52.6667 26.4755 52.6667H45.5232C46.5335 52.6667 47.5025 52.2765 48.2169 51.5819C48.9313 50.8873 49.3327 49.9453 49.3327 48.963V26.7408C49.3327 25.7585 48.9313 24.8164 48.2169 24.1219C47.5025 23.4273 46.5335 23.0371 45.5232 23.0371H41.7136M30.2851 23.0371C30.2851 25.0826 31.9906 26.7408 34.0946 26.7408H37.9041C40.0081 26.7408 41.7136 25.0826 41.7136 23.0371M30.2851 23.0371C30.2851 20.9916 31.9906 19.3334 34.0946 19.3334H37.9041C40.0081 19.3334 41.7136 20.9916 41.7136 23.0371M30.2851 36H30.3041M37.9041 36H41.7136M30.2851 43.4074H30.3041M37.9041 43.4074H41.7136" stroke="#04AA6D" stroke-width="2.5" stroke-linecap="round" stroke-linejoin="round"/>
</g>
<defs>
<clipPath id="clip0_335_19378">
<rect width="40" height="40" fill="white" transform="translate(16 16)"/>
</clipPath>
</defs>
</svg>
