<svg width="641" height="89" viewBox="0 0 641 89" fill="none" xmlns="http://www.w3.org/2000/svg">
<g clip-path="url(#clip0_278_7815)">
<path d="M0.5 16C0.5 7.16345 7.66344 0 16.5 0H624.5C633.337 0 640.5 7.16344 640.5 16V89H0.5V16Z" fill="#ECE0FD"/>
<path d="M175.01 38.5561C175.647 38.1655 176.413 38.8091 176.138 39.5035L174.524 43.5789C174.169 44.475 174.028 45.4414 174.112 46.4015C174.196 47.3616 174.502 48.289 175.006 49.1102L177.298 52.8443C177.689 53.4809 177.045 54.247 176.351 53.9721L172.276 52.3575C171.38 52.0029 170.413 51.8619 169.453 51.9456C168.493 52.0294 167.566 52.3356 166.744 52.84L163.01 55.1322C162.871 55.2183 162.709 55.2583 162.546 55.2466C162.383 55.2349 162.228 55.172 162.103 55.067C161.978 54.9619 161.89 54.8201 161.85 54.6617C161.81 54.5033 161.822 54.3364 161.882 54.1848L163.497 50.1095C163.852 49.2137 163.993 48.2476 163.909 47.2878C163.826 46.3279 163.52 45.4007 163.016 44.5796L160.722 40.8441C160.636 40.7053 160.596 40.5429 160.608 40.38C160.62 40.2171 160.683 40.0621 160.788 39.9371C160.893 39.812 161.034 39.7234 161.193 39.6837C161.351 39.6441 161.518 39.6554 161.67 39.7162L165.745 41.3309C166.641 41.6855 167.607 41.8267 168.567 41.7432C169.527 41.6598 170.454 41.3539 171.275 40.85L175.01 38.5561Z" fill="#9664F5"/>
<path d="M476.01 30.5561C476.647 30.1655 477.413 30.8091 477.138 31.5035L475.524 35.5789C475.169 36.475 475.028 37.4414 475.112 38.4015C475.196 39.3616 475.502 40.289 476.006 41.1102L478.298 44.8443C478.689 45.4809 478.045 46.247 477.351 45.9721L473.276 44.3575C472.38 44.0029 471.413 43.8619 470.453 43.9456C469.493 44.0294 468.566 44.3356 467.744 44.84L464.01 47.1322C463.871 47.2183 463.709 47.2583 463.546 47.2466C463.383 47.2349 463.228 47.172 463.103 47.067C462.978 46.9619 462.89 46.8201 462.85 46.6617C462.81 46.5033 462.822 46.3364 462.882 46.1848L464.497 42.1095C464.852 41.2137 464.993 40.2476 464.909 39.2878C464.826 38.3279 464.52 37.4007 464.016 36.5796L461.722 32.8441C461.636 32.7053 461.596 32.5429 461.608 32.38C461.62 32.2171 461.683 32.0621 461.788 31.9371C461.893 31.812 462.034 31.7234 462.193 31.6837C462.351 31.6441 462.518 31.6554 462.67 31.7162L466.745 33.3309C467.641 33.6855 468.607 33.8267 469.567 33.7432C470.527 33.6598 471.454 33.3539 472.275 32.85L476.01 30.5561Z" fill="#9664F5"/>
<path d="M321.188 59.5616C321.492 59.3754 321.857 59.6821 321.726 60.0131L320.956 61.9552C320.787 62.3823 320.72 62.8428 320.76 63.3004C320.8 63.7579 320.946 64.1999 321.186 64.5912L322.279 66.3708C322.465 66.6741 322.158 67.0392 321.827 66.9082L319.885 66.1388C319.458 65.9698 318.997 65.9026 318.54 65.9425C318.082 65.9824 317.64 66.1283 317.249 66.3687L315.469 67.4611C315.403 67.5021 315.326 67.5212 315.248 67.5156C315.171 67.51 315.097 67.4801 315.037 67.43C314.978 67.38 314.935 67.3124 314.916 67.2369C314.897 67.1614 314.903 67.0818 314.932 67.0096L315.701 65.0675C315.87 64.6406 315.938 64.1802 315.898 63.7227C315.858 63.2653 315.712 62.8234 315.472 62.4321L314.379 60.6519C314.338 60.5858 314.319 60.5084 314.325 60.4308C314.33 60.3532 314.36 60.2793 314.41 60.2197C314.46 60.1601 314.528 60.1178 314.603 60.0989C314.679 60.08 314.758 60.0855 314.831 60.1145L316.773 60.8839C317.2 61.0529 317.66 61.1202 318.117 61.0804C318.575 61.0406 319.017 60.8949 319.408 60.6547L321.188 59.5616Z" fill="#9664F5"/>
<path d="M36.3946 38.7475C36.4308 38.649 36.4972 38.5645 36.5842 38.5059C36.6712 38.4473 36.7745 38.4176 36.8794 38.421C36.9842 38.4245 37.0853 38.4609 37.1683 38.5251C37.2513 38.5893 37.312 38.678 37.3417 38.7787L38.1433 41.4791C38.5018 42.6829 39.4044 43.647 40.582 44.0839L43.2239 45.0614C43.3223 45.0977 43.4069 45.164 43.4655 45.2511C43.5241 45.3381 43.5538 45.4414 43.5503 45.5462C43.5469 45.6511 43.5104 45.7522 43.4462 45.8352C43.382 45.9182 43.2933 45.9788 43.1927 46.0085L40.4922 46.8102C39.8985 46.9865 39.354 47.2987 38.9019 47.722C38.4498 48.1453 38.1025 48.6681 37.8875 49.2489L36.9099 51.8907C36.8737 51.9892 36.8073 52.0737 36.7203 52.1323C36.6332 52.191 36.53 52.2206 36.4251 52.2172C36.3202 52.2137 36.2191 52.1773 36.1361 52.1131C36.0531 52.0489 35.9925 51.9602 35.9628 51.8596L35.1611 49.1591C34.9848 48.5654 34.6726 48.0209 34.2494 47.5688C33.8261 47.1167 33.3033 46.7693 32.7225 46.5543L30.0806 45.5768C29.9821 45.5405 29.8976 45.4742 29.839 45.3871C29.7804 45.3001 29.7507 45.1968 29.7542 45.092C29.7576 44.9871 29.794 44.886 29.8582 44.803C29.9224 44.72 30.0111 44.6594 30.1118 44.6297L32.8122 43.828C33.4059 43.6517 33.9504 43.3395 34.4026 42.9162C34.8547 42.4929 35.202 41.9702 35.417 41.3893L36.3946 38.7475ZM52.7239 36.8712C52.7487 36.8064 52.7931 36.7511 52.8509 36.7128C52.9086 36.6745 52.9769 36.6551 53.0462 36.6574C53.1154 36.6597 53.1823 36.6835 53.2374 36.7255C53.2925 36.7675 53.3332 36.8257 53.3537 36.8919L53.8882 38.6907C54.1264 39.4947 54.7288 40.1382 55.5155 40.4288L57.2752 41.0804C57.3399 41.1053 57.3953 41.1497 57.4336 41.2074C57.4719 41.2652 57.4912 41.3335 57.489 41.4027C57.4867 41.472 57.4629 41.5389 57.4208 41.594C57.3788 41.6491 57.3207 41.6897 57.2545 41.7103L55.4557 42.2448C55.0594 42.3623 54.696 42.5705 54.3943 42.853C54.0926 43.1355 53.8609 43.4844 53.7176 43.8721L53.0659 45.6318C53.0411 45.6965 52.9967 45.7518 52.9389 45.7901C52.8812 45.8284 52.8129 45.8478 52.7436 45.8455C52.6743 45.8432 52.6075 45.8194 52.5524 45.7774C52.4973 45.7354 52.4566 45.6772 52.4361 45.611L51.9016 43.8123C51.7841 43.416 51.5759 43.0526 51.2934 42.7509C51.0109 42.4492 50.662 42.2175 50.2743 42.0742L48.5169 41.4226C48.4522 41.3977 48.3968 41.3533 48.3585 41.2956C48.3202 41.2378 48.3009 41.1695 48.3031 41.1003C48.3054 41.031 48.3292 40.9641 48.3712 40.909C48.4133 40.8539 48.4714 40.8132 48.5376 40.7927L50.3364 40.2582C51.1405 40.0201 51.784 39.4176 52.0745 38.6309L52.7238 36.8735L52.7239 36.8712Z" fill="#9664F5"/>
<g clip-path="url(#clip1_278_7815)">
<path d="M574.033 54.3894C573.931 54.2964 573.803 54.2377 573.666 54.2218C573.529 54.2059 573.39 54.2336 573.27 54.3008C573.15 54.3681 573.054 54.4715 572.996 54.5965C572.938 54.7214 572.92 54.8615 572.946 54.9968L573.639 58.6311C573.947 60.2519 573.475 61.9209 572.364 63.1407L569.871 65.8743C569.778 65.9759 569.72 66.1043 569.704 66.2412C569.688 66.3781 569.715 66.5165 569.783 66.6367C569.85 66.757 569.953 66.853 570.078 66.9112C570.203 66.9693 570.343 66.9865 570.479 66.9605L574.113 66.2677C574.912 66.1154 575.736 66.1514 576.518 66.3726C577.301 66.5939 578.022 66.9945 578.623 67.5426L581.356 70.0357C581.458 70.1287 581.586 70.1873 581.723 70.2032C581.86 70.2191 581.998 70.1915 582.119 70.1242C582.239 70.057 582.335 69.9535 582.393 69.8286C582.451 69.7036 582.468 69.5636 582.442 69.4282L581.75 65.794C581.597 64.9949 581.633 64.1714 581.855 63.3886C582.076 62.6059 582.476 61.8854 583.024 61.2843L585.518 58.5508C585.611 58.4492 585.669 58.3208 585.685 58.1839C585.701 58.047 585.673 57.9086 585.606 57.7883C585.539 57.668 585.435 57.572 585.31 57.5139C585.186 57.4558 585.045 57.4385 584.91 57.4646L581.276 58.1574C580.477 58.3097 579.653 58.2737 578.871 58.0524C578.088 57.8311 577.367 57.4306 576.766 56.8825L574.033 54.3894ZM553.848 62.0459C553.78 61.9853 553.695 61.9475 553.605 61.9376C553.514 61.9278 553.423 61.9463 553.343 61.9908C553.264 62.0352 553.2 62.1033 553.161 62.1856C553.122 62.2678 553.11 62.3602 553.126 62.4498L553.587 64.8709C553.794 65.9527 553.479 67.0667 552.736 67.8801L551.076 69.7014C551.015 69.7695 550.978 69.8546 550.968 69.9451C550.958 70.0356 550.976 70.1269 551.021 70.2064C551.065 70.2859 551.133 70.3495 551.216 70.3885C551.298 70.4274 551.39 70.4398 551.48 70.4239L553.901 69.9629C554.434 69.8611 554.984 69.885 555.506 70.0326C556.028 70.1803 556.509 70.4477 556.91 70.8137L558.731 72.474C558.799 72.5345 558.885 72.5723 558.975 72.5822C559.066 72.592 559.157 72.5735 559.236 72.529C559.316 72.4846 559.38 72.4165 559.419 72.3343C559.457 72.252 559.47 72.1596 559.454 72.07L558.993 69.6489C558.891 69.1157 558.915 68.5661 559.063 68.0438C559.21 67.5214 559.478 67.0407 559.844 66.6397L561.501 64.8198C561.562 64.7518 561.6 64.6667 561.61 64.5762C561.619 64.4857 561.601 64.3943 561.556 64.3149C561.512 64.2354 561.444 64.1718 561.362 64.1328C561.279 64.0938 561.187 64.0815 561.097 64.0974L558.676 64.5584C557.595 64.7653 556.48 64.4503 555.667 63.7076L553.85 62.0485L553.848 62.0459Z" fill="#9664F5"/>
</g>
</g>
<defs>
<clipPath id="clip0_278_7815">
<path d="M0.5 16C0.5 7.16345 7.66344 0 16.5 0H624.5C633.337 0 640.5 7.16344 640.5 16V89H0.5V16Z" fill="white"/>
</clipPath>
<clipPath id="clip1_278_7815">
<rect width="60.4155" height="60.4155" fill="white" transform="matrix(-0.872804 0.488071 0.488071 0.872804 587.307 36.0762)"/>
</clipPath>
</defs>
</svg>
