<svg width="96" height="96" viewBox="0 0 96 96" fill="none" xmlns="http://www.w3.org/2000/svg">
<rect width="96" height="96" rx="48" fill="#E8F5ED"/>
<path d="M37.5 64.25C36.8096 64.25 36.25 64.8096 36.25 65.5C36.25 66.1904 36.8096 66.75 37.5 66.75V64.25ZM58.5 66.75C59.1904 66.75 59.75 66.1904 59.75 65.5C59.75 64.8096 59.1904 64.25 58.5 64.25V66.75ZM33.6111 31.75H62.3889V29.25H33.6111V31.75ZM64.25 33.6899V52.4304H66.75V33.6899H64.25ZM62.3889 54.3703H33.6111V56.8703H62.3889V54.3703ZM31.75 52.4304V33.6899H29.25V52.4304H31.75ZM33.6111 54.3703C32.6125 54.3703 31.75 53.5314 31.75 52.4304H29.25C29.25 54.8528 31.1733 56.8703 33.6111 56.8703V54.3703ZM64.25 52.4304C64.25 53.5314 63.3875 54.3703 62.3889 54.3703V56.8703C64.8267 56.8703 66.75 54.8528 66.75 52.4304H64.25ZM62.3889 31.75C63.3875 31.75 64.25 32.5889 64.25 33.6899H66.75C66.75 31.2674 64.8267 29.25 62.3889 29.25V31.75ZM33.6111 29.25C31.1733 29.25 29.25 31.2674 29.25 33.6899H31.75C31.75 32.5889 32.6125 31.75 33.6111 31.75V29.25ZM46.75 55.6203V65.5H49.25V55.6203H46.75ZM37.5 66.75H58.5V64.25H37.5V66.75Z" fill="#04AA6D"/>
</svg>
