<svg width="48" height="49" viewBox="0 0 48 49" fill="none" xmlns="http://www.w3.org/2000/svg">
<rect y="0.905762" width="48" height="48" rx="8" fill="white"/>
<rect y="0.905762" width="48" height="48" rx="8" fill="#04AA6D" fill-opacity="0.1"/>
<g clip-path="url(#clip0_278_7741)">
<path d="M30.4 18.2499L29.7 18.9499M15 24.6499H16H15ZM24 15.6499V16.6499V15.6499ZM32 24.6499H33H32ZM17.6 18.2499L18.3 18.9499L17.6 18.2499Z" stroke="#04AA6D" stroke-width="2" stroke-linecap="round" stroke-linejoin="round"/>
<path d="M21 28.6499C20.1605 28.0203 19.5403 27.1424 19.2274 26.1407C18.9145 25.1391 18.9247 24.0643 19.2566 23.0688C19.5884 22.0732 20.2251 21.2073 21.0764 20.5937C21.9278 19.9801 22.9506 19.6499 24 19.6499C25.0494 19.6499 26.0722 19.9801 26.9236 20.5937C27.7749 21.2073 28.4116 22.0732 28.7434 23.0688C29.0753 24.0643 29.0855 25.1391 28.7726 26.1407C28.4597 27.1424 27.8395 28.0203 27 28.6499C26.6096 29.0364 26.3156 29.5093 26.1419 30.0305C25.9681 30.5517 25.9195 31.1065 26 31.6499C26 32.1803 25.7893 32.689 25.4142 33.0641C25.0391 33.4392 24.5304 33.6499 24 33.6499C23.4696 33.6499 22.9609 33.4392 22.5858 33.0641C22.2107 32.689 22 32.1803 22 31.6499C22.0805 31.1065 22.0319 30.5517 21.8581 30.0305C21.6844 29.5093 21.3904 29.0364 21 28.6499" stroke="#04AA6D" stroke-width="2" stroke-linecap="round" stroke-linejoin="round"/>
<path d="M21.7 29.6499H26.3" stroke="#04AA6D" stroke-width="2" stroke-linecap="round" stroke-linejoin="round"/>
</g>
<defs>
<clipPath id="clip0_278_7741">
<rect width="24" height="24" fill="white" transform="translate(12 12.6499)"/>
</clipPath>
</defs>
</svg>
