<svg width="62" height="62" viewBox="0 0 62 62" fill="none" xmlns="http://www.w3.org/2000/svg">
<rect width="62" height="62" rx="31" fill="#E8F5ED"/>
<path d="M48.5 43.5V40.7222C48.499 39.4913 48.0633 38.2955 47.2611 37.3227C46.459 36.3498 45.3359 35.655 44.0682 35.3472M39.6364 43.5V40.7222C39.6364 39.2488 39.0138 37.8357 37.9056 36.7939C36.7975 35.752 35.2945 35.1667 33.7273 35.1667H21.9091C20.3419 35.1667 18.8389 35.752 17.7307 36.7939C16.6226 37.8357 16 39.2488 16 40.7222V43.5M38.1591 18.6806C39.4302 18.9865 40.5568 19.6815 41.3613 20.656C42.1658 21.6304 42.6025 22.8289 42.6025 24.0625C42.6025 25.2961 42.1658 26.4946 41.3613 27.469C40.5568 28.4435 39.4302 29.1385 38.1591 29.4444M33.7273 24.0556C33.7273 27.1238 31.0817 29.6111 27.8182 29.6111C24.5547 29.6111 21.9091 27.1238 21.9091 24.0556C21.9091 20.9873 24.5547 18.5 27.8182 18.5C31.0817 18.5 33.7273 20.9873 33.7273 24.0556Z" stroke="#04AA6D" stroke-width="2.5" stroke-linecap="round" stroke-linejoin="round"/>
</svg>
