<svg width="49" height="48" viewBox="0 0 49 48" fill="none" xmlns="http://www.w3.org/2000/svg">
<rect x="0.5" width="48" height="48" rx="8" fill="white"/>
<rect x="0.5" width="48" height="48" rx="8" fill="#04AA6D" fill-opacity="0.1"/>
<g clip-path="url(#clip0_321_15089)">
<path d="M35.5 32.9999V30.9999C35.4993 30.1136 35.2044 29.2527 34.6614 28.5522C34.1184 27.8517 33.3581 27.3515 32.5 27.1299" stroke="#04AA6D" stroke-width="2" stroke-linecap="round" stroke-linejoin="round"/>
<path d="M29.5 33V31C29.5 29.9391 29.0786 28.9217 28.3284 28.1716C27.5783 27.4214 26.5609 27 25.5 27H17.5C16.4391 27 15.4217 27.4214 14.6716 28.1716C13.9214 28.9217 13.5 29.9391 13.5 31V33" stroke="#04AA6D" stroke-width="2" stroke-linecap="round" stroke-linejoin="round"/>
<path d="M28.5 15.1299C29.3604 15.3502 30.123 15.8506 30.6676 16.5522C31.2122 17.2538 31.5078 18.1167 31.5078 19.0049C31.5078 19.8931 31.2122 20.756 30.6676 21.4576C30.123 22.1592 29.3604 22.6596 28.5 22.8799" stroke="#04AA6D" stroke-width="2" stroke-linecap="round" stroke-linejoin="round"/>
<path d="M21.5 23C23.7091 23 25.5 21.2091 25.5 19C25.5 16.7909 23.7091 15 21.5 15C19.2909 15 17.5 16.7909 17.5 19C17.5 21.2091 19.2909 23 21.5 23Z" stroke="#04AA6D" stroke-width="2" stroke-linecap="round" stroke-linejoin="round"/>
</g>
<defs>
<clipPath id="clip0_321_15089">
<rect width="24" height="24" fill="white" transform="translate(12.5 12)"/>
</clipPath>
</defs>
</svg>
