<svg width="49" height="48" viewBox="0 0 49 48" fill="none" xmlns="http://www.w3.org/2000/svg">
<rect x="0.5" width="48" height="48" rx="8" fill="white"/>
<rect x="0.5" width="48" height="48" rx="8" fill="#04AA6D" fill-opacity="0.1"/>
<path fill-rule="evenodd" clip-rule="evenodd" d="M24.5013 33L20.7424 29.0742L17.0132 25.1485C14.9956 22.9788 14.9956 19.583 17.0132 17.4134C18.0011 16.4472 19.3392 15.9423 20.7073 16.0195C22.0754 16.0967 23.3505 16.749 24.2274 17.8204L24.5013 18.0939L24.7726 17.8086C25.6495 16.7372 26.9246 16.0849 28.2927 16.0077C29.6608 15.9305 30.9989 16.4354 31.9868 17.4016C34.0044 19.5713 34.0044 22.967 31.9868 25.1367L28.2576 29.0625L24.5013 33Z" stroke="#04AA6D" stroke-width="2" stroke-linecap="round" stroke-linejoin="round"/>
</svg>
