<svg width="170" height="90" viewBox="30 -10 170 90" xmlns="http://www.w3.org/2000/svg">
  <rect x="30" y="-10" width="100%" height="100%" fill="white"></rect>
  <defs>
    <style>
      .svgText {
        font-family: Veranda, sans-serif;
        fill: black;
      }
      .svgDataText{
        font-family: "Roboto Mono", monospace;
        fill: black;
      }
      .svgAddressText{
        font-family: "Roboto Mono", monospace;
        fill: black;
      }
    </style>
    <marker id="arrowhead" markerWidth="8" markerHeight="14" refX="0" refY="7" orient="auto" markerUnits="userSpaceOnUse">
      <line x1="0.5" y1="0.5" x2="7.5" y2="7.5" stroke="black" stroke-width="1.5"/>
      <line x1="0" y1="7" x2="6" y2="7" stroke="black" stroke-width="1"/>
      <line x1="0.5" y1="13.5" x2="7.5" y2="6.5" stroke="black" stroke-width="1.5"/>
    </marker>
  </defs>
  <!-- First node -->
  <path d="M 70 7
          L 140 7 
          L 140 36 
          L 70 36 Z"
        stroke="black" stroke-width="1" fill="#E0E0E0">
  </path>
  <line x1="70" y1="22" x2="140" y2="22" stroke="black" stroke-width="1"></line>
  <line x1="75" y1="22" x2="135" y2="22" stroke="#E0E0E0" stroke-width="3"></line>
  <text x="85" y="26" class="svgDataText">data</text>
  <path d="M 70 36 
          L 140 36 
          L 140 65 
          L 70 65 Z"
        stroke="black" stroke-width="1" fill="#FCFC62">
  </path>
  <line x1="70" y1="50" x2="140" y2="50" stroke="black" stroke-width="1"></line>
  <line x1="75" y1="50" x2="135" y2="50" stroke="#FCFC62" stroke-width="3"></line>
  <text x="85" y="55" class="svgAddressText">next</text>

  <path id="arw1" d="M140,50 165,50" stroke="black" stroke-width="1" fill="none" marker-end="url(#arrowhead)"></path>
  <!--
    Alternative arrowhead:
<line x1="5.53033" y1="4.53033" x2="0.53033" y2="9.53033" stroke="black" stroke-width="1.5"/>
<line x1="0.53033" y1="0.46967" x2="5.53033" y2="5.46967" stroke="black" stroke-width="1.5"/>
    -->
</svg>